<svg width="144" height="30" viewBox="0 0 144 30" fill="none" xmlns="http://www.w3.org/2000/svg">
  <path d="m7.94 15.826 2.674-6.467h4.34L9.991 19.436V25H5.898v-5.564L.925 9.359h4.34zm20.872 3.792q-.065 1.654-.881 2.922-.817 1.257-2.267 1.966-1.44.71-3.395.709-2.115 0-3.62-.924-1.503-.934-2.298-2.664-.785-1.73-.785-4.125v-.634q0-2.406.828-4.136.826-1.729 2.31-2.664 1.492-.934 3.501-.934 2.085 0 3.502.752 1.43.752 2.202 2.052.784 1.3.924 2.932h-4.018q-.02-1.224-.59-1.826t-2.02-.602q-.87 0-1.44.42-.558.407-.837 1.374-.27.957-.269 2.61v.656q0 1.665.236 2.632.247.956.817 1.364.58.408 1.558.408.805 0 1.364-.236.558-.237.848-.741.3-.506.312-1.31z" fill="#EE2B69"/>
  <path d="M32.152 25v-3.244h3.449q1.02 0 1.718-.473.699-.472 1.064-1.428.365-.957.365-2.407V16.9q0-1.44-.365-2.384-.355-.957-1.074-1.43-.71-.471-1.773-.472h-3.448V9.36h3.448q2.148 0 3.792.967a6.84 6.84 0 0 1 2.589 2.675q.935 1.698.935 3.92v.527q0 2.213-.935 3.921a6.9 6.9 0 0 1-2.567 2.675Q37.716 25 35.6 25zm2.331 0h-4.039V9.36h4.04zM46.622 8.5q.956 0 1.536.537.591.537.591 1.397 0 .847-.59 1.396-.581.537-1.537.537-.945 0-1.536-.537-.59-.547-.59-1.396 0-.86.59-1.397.591-.537 1.536-.537M48.566 25h-3.888V13.377h3.888zm5.974 0h-3.868V13.377h3.61l.257 3.104zm3.286-7.928q-.225-.021-.612-.053a8 8 0 0 0-.612-.033q-.817 0-1.332.215-.505.204-.73.645-.227.44-.216 1.16l-.676-.58q0-1.58.397-2.761.397-1.192 1.117-1.848a2.48 2.48 0 0 1 1.708-.655q.27 0 .537.032.28.022.484.097zm6.983 8.143q-1.935 0-3.298-.784-1.354-.784-2.063-2.063a5.7 5.7 0 0 1-.709-2.782v-.397q0-1.665.623-3.03a4.97 4.97 0 0 1 1.88-2.18q1.257-.817 3.158-.817 1.687 0 2.88.698 1.191.688 1.826 1.977.645 1.279.644 3.061v1.622h-9.56v-2.48h5.779v-.312q.01-.505-.172-.828a1.08 1.08 0 0 0-.548-.472q-.355-.15-.88-.15-.753 0-1.129.418-.376.42-.505 1.085a7.3 7.3 0 0 0-.129 1.408v.397q0 .774.29 1.343.29.558.838.86.56.3 1.332.3.71 0 1.418-.247.72-.247 1.214-.87l1.74 2.223q-.537.752-1.74 1.386-1.192.634-2.89.634m11.377 0q-1.838 0-3.062-.774a4.84 4.84 0 0 1-1.826-2.105q-.612-1.343-.612-3.04v-.204q0-1.698.601-3.04a4.83 4.83 0 0 1 1.826-2.117q1.225-.773 3.051-.773 1.482 0 2.6.559a4.1 4.1 0 0 1 1.761 1.611q.634 1.064.613 2.6h-3.62q.01-.452-.14-.827a1.25 1.25 0 0 0-.462-.602q-.323-.225-.849-.226-.676 0-.999.387-.321.375-.419 1.02a9.4 9.4 0 0 0-.096 1.408v.204q0 .795.086 1.429.096.633.43 1.01.332.365 1.03.365.473 0 .796-.162a1.02 1.02 0 0 0 .472-.461 1.5 1.5 0 0 0 .15-.742h3.62q.022 1.365-.633 2.374a4.36 4.36 0 0 1-1.772 1.558q-1.118.548-2.546.548m12.708-9.045h-7.144v-2.793h7.144zm-1.859-5.683v10.506q0 .408.097.645.096.225.344.322.257.096.698.097.3 0 .505-.011.204-.011.376-.043v2.879q-.494.171-1.01.247a6.6 6.6 0 0 1-1.106.086q-1.204 0-2.052-.376a2.72 2.72 0 0 1-1.279-1.192q-.44-.817-.44-2.095V10.487zm2.514 8.605q0-1.708.644-3.04a4.95 4.95 0 0 1 1.902-2.117q1.257-.773 3.094-.773 1.858 0 3.115.773a4.86 4.86 0 0 1 1.901 2.117q.645 1.332.645 3.04v.204q0 1.697-.645 3.04a4.9 4.9 0 0 1-1.89 2.116q-1.257.763-3.105.763t-3.115-.763a4.95 4.95 0 0 1-1.902-2.116q-.645-1.343-.644-3.04zm3.878.204q0 .795.14 1.44.15.633.537.998.386.366 1.106.366.71 0 1.096-.366.386-.364.526-.999.15-.645.15-1.44v-.203q0-.774-.15-1.407-.14-.645-.526-1.02-.386-.388-1.118-.388-.708 0-1.095.387-.375.375-.527 1.02-.14.634-.14 1.408zM106.252 25h-3.867V13.377h3.609l.258 3.104zm3.287-7.928q-.225-.021-.612-.053a8 8 0 0 0-.613-.033q-.816 0-1.332.215-.505.204-.73.645-.225.44-.215 1.16l-.677-.58q0-1.58.398-2.761.397-1.192 1.117-1.848a2.48 2.48 0 0 1 1.708-.655q.268 0 .537.032.279.022.484.097zm7.734-3.695h4.147l-4.63 13.331a8 8 0 0 1-.408.956q-.258.516-.698.978a3.2 3.2 0 0 1-1.118.752q-.677.3-1.686.3-.366 0-.58-.021a2 2 0 0 1-.419-.065l-.548-.14V26.59q.13 0 .215-.01h.225q.86 0 1.204-.216.354-.204.494-.57l.859-2.201zm-1.278 7.81.398 4.318-2.579-.14-4.092-11.988h4.146zm26.898-6.621c.337.57.007 1.332-1.062 2.187-1.185.937-2.405 1.831-3.607 2.747-.486.663-1.191.997-1.951 1.139-1.303.255-2.193-.825-1.684-2.048.276-.66.613-1.334 1.378-1.599 1.313-1.106 2.788-1.974 4.364-2.64 1.232-.52 2.199-.395 2.562.214m-8.854-6.136c-.367.231-.743.49-1.021.819-1.235 1.452-2.452 2.922-3.376 4.603a5 5 0 0 0-.439 1.08c-.15.563-.029 1.074.486 1.42.51.34 1.013.247 1.512-.057.385-.233.697-.545.943-.909.465-.687.899-1.395 1.167-1.815.604-1.05 1.06-1.804 1.471-2.581.25-.473.464-.971.635-1.48.129-.382.085-.782-.277-1.058-.354-.273-.753-.24-1.101-.023m-8.21-3.728c.177.542.42 1.095.214 1.695l.008.005c.29 1.985.561 3.967.334 5.976a12 12 0 0 1-.336 1.72c-.143.568-.522.933-1.122 1.02s-1.027-.227-1.363-.683c-.315-.44-.461-.964-.572-1.495-.387-1.784-.344-3.587-.213-5.396-.267-.924-.052-1.833.16-2.722.177-.703.602-1.237 1.393-1.297.647-.045 1.235.393 1.497 1.177" fill="#000"/>
</svg>
